<?xml version="1.0" standalone="no"?><!DOCTYPE svg PUBLIC "-//W3C//DTD SVG 1.1//EN" "http://www.w3.org/Graphics/SVG/1.1/DTD/svg11.dtd"><svg t="1612253232327" class="icon" viewBox="0 0 1024 1024" version="1.1" xmlns="http://www.w3.org/2000/svg" p-id="2866" data-spm-anchor-id="a313x.7781069.0.i2" width="40" height="40" xmlns:xlink="http://www.w3.org/1999/xlink"><defs><style type="text/css"></style></defs><path d="M358.4 611.84v-1.536h-18.0224V257.2288c0-0.9216-0.3584-1.7408-0.512-2.6112V199.9872c0-10.24 8.2944-18.5856 18.5344-18.5856h581.7856c10.24 0 18.5344 8.2944 18.5344 18.5856v410.368h-18.5344v1.4336H358.4z m-225.5872 96.0512a98.2016 98.2016 0 0 1 91.136-62.976 97.4336 97.4336 0 0 1 91.136 62.976c2.2528 5.9392 3.9424 12.1856 5.0176 18.5856 0.9216 5.3248 1.4848 10.752 1.4848 16.3328l-0.1024 2.2528a97.792 97.792 0 0 1-97.536 95.6416 97.792 97.792 0 0 1-97.536-95.6416l-0.1024-2.2528a98.6112 98.6112 0 0 1 6.5024-34.9184z m50.432 37.1712c1.2288 21.5552 18.944 38.7072 40.704 38.7072 21.76 0 39.424-17.152 40.6528-38.7072 0.0512-0.7168 0.2048-1.4848 0.2048-2.2528a40.704 40.704 0 0 0-19.7632-34.9184 40.704 40.704 0 0 0-21.0944-6.0928 41.2672 41.2672 0 0 0-40.96 40.96c0 0.8192 0.2048 1.536 0.256 2.304z m-115.712-126.4128V479.744c0-107.4688 70.7584-163.0208 73.7792-165.376a18.432 18.432 0 0 1 11.264-3.7888h149.2992c5.4784 0 10.3424 2.4064 13.7728 6.2464v305.9712a12.288 12.288 0 0 0 3.2256 8.192h1.536l-0.1024 1.28a12.0832 12.0832 0 0 0 7.68 2.9184h354.6112a122.6752 122.6752 0 0 0-63.8464 107.6736l0.1024 2.2528H346.2144c0-0.7168 0.1536-1.4848 0.1536-2.2528 0-5.5296-0.512-10.9568-1.2288-16.3328a123.0336 123.0336 0 0 0-41.8816-76.9024h-1.3824l1.2288-0.1536a123.4432 123.4432 0 0 0-79.1552-29.2352 119.808 119.808 0 0 0-49.9712 10.752 122.5216 122.5216 0 0 0-71.168 95.5392 117.248 117.248 0 0 0-1.28 16.3328c0 0.768 0.1024 1.536 0.1536 2.2528h-20.3264a18.5344 18.5344 0 0 1-18.5856-18.5856v-95.5392c0-4.7104 1.8944-9.0112 4.7616-12.288z m215.7568-162.0992V347.648H159.4368a177.664 177.664 0 0 0-53.3504 108.8512h177.2032z m366.6944 251.3408a98.1504 98.1504 0 0 1 91.136-62.976 98.1504 98.1504 0 0 1 97.6384 97.8432l-0.1024 2.304a97.792 97.792 0 0 1-97.536 95.6416 97.792 97.792 0 0 1-97.536-95.6416l-0.1024-2.2528a96.4608 96.4608 0 0 1 6.5024-34.9184z m50.432 37.1712c1.2288 21.5552 18.944 38.7072 40.704 38.7072 21.76 0 39.424-17.152 40.6528-38.7072 0-0.7168 0.256-1.4848 0.256-2.2528a40.704 40.704 0 0 0-19.8144-34.9184 40.6016 40.6016 0 0 0-21.0944-6.0928 41.4208 41.4208 0 0 0-40.9088 40.96c0 0.8192 0.2048 1.536 0.2048 2.304z m119.9616-95.488a122.88 122.88 0 0 0-20.736-14.4384c-2.7648-1.536-5.632-2.8672-8.5504-4.1984l-1.1776-0.512h131.072l0.1024 0.512v95.5392c0 10.2912-8.2944 18.5856-18.5856 18.5856h-39.1168l0.1024-2.2528c0-5.5296-0.512-10.9568-1.2288-16.3328a122.624 122.624 0 0 0-41.8816-76.9024z" p-id="2867" fill="#1296db" data-spm-anchor-id="a313x.7781069.0.i0" class="selected"></path></svg>
