<svg t="1607665775274" viewBox="0 0 1957 1024" version="1.1" xmlns="http://www.w3.org/2000/svg" p-id="6909" width="300" height="200"><path d="M1019.718041 318.088411v34.867384a40.984468 40.984468 0 0 1-81.968937 0V318.088411H244.683393v130.293907a296.066906 296.066906 0 0 0 122.341697 31.197132 153.538829 153.538829 0 0 0 100.320191-33.032258A228.167264 228.167264 0 0 1 611.708483 400.669056a320.535245 320.535245 0 0 1 158.432497 42.819594 244.683393 244.683393 0 0 0 122.341696 35.479092 154.150538 154.150538 0 0 0 101.543608-33.032258 231.225806 231.225806 0 0 1 144.363202-45.266428A228.167264 228.167264 0 0 1 1284.587814 446.547192a152.315412 152.315412 0 0 0 100.320191 33.032258 154.150538 154.150538 0 0 0 100.320191-33.032258 226.332139 226.332139 0 0 1 144.363202-45.878136 284.444444 284.444444 0 0 1 81.357228 11.010753V318.088411z m-81.968937-81.968937v-37.925926a40.984468 40.984468 0 0 1 81.968937 0v37.925926h774.422939v630.671446H163.326165V236.119474zM1712.783751 569.500597V498.542413a192.076464 192.076464 0 0 0-81.357228-16.516129 152.315412 152.315412 0 0 0-100.320191 33.032258 231.837515 231.837515 0 0 1-144.363202 45.878137 229.390681 229.390681 0 0 1-144.363202-45.878137 154.150538 154.150538 0 0 0-100.320191-33.032258 155.985663 155.985663 0 0 0-100.320191 32.42055 233.060932 233.060932 0 0 1-145.586619 45.878136 318.700119 318.700119 0 0 1-162.102748-42.819594 237.342891 237.342891 0 0 0-122.341696-34.867383 153.538829 153.538829 0 0 0-100.320191 33.032258A231.837515 231.837515 0 0 1 367.02509 560.936679a340.109916 340.109916 0 0 1-122.341697-24.46834v69.734767a294.23178 294.23178 0 0 0 122.341697 30.585424 153.538829 153.538829 0 0 0 100.320191-33.032258A231.837515 231.837515 0 0 1 611.708483 557.878136a315.029869 315.029869 0 0 1 158.432497 43.431302 244.683393 244.683393 0 0 0 122.341696 34.867384 154.150538 154.150538 0 0 0 101.543608-33.032258 231.837515 231.837515 0 0 1 144.363202-45.878136 231.837515 231.837515 0 0 1 144.363202 45.878136 152.315412 152.315412 0 0 0 100.320191 33.032258 154.150538 154.150538 0 0 0 100.320191-33.032258 229.390681 229.390681 0 0 1 144.363202-45.878136 266.704898 266.704898 0 0 1 85.027479 12.234169z m0 86.250896a198.805257 198.805257 0 0 0-81.357228-15.90442A151.703704 151.703704 0 0 0 1529.271207 672.879331a228.167264 228.167264 0 0 1-144.363202 45.878136 226.332139 226.332139 0 0 1-142.528077-45.878136 153.538829 153.538829 0 0 0-100.320191-32.42055A152.315412 152.315412 0 0 0 1039.904421 672.879331a232.449223 232.449223 0 0 1-145.586619 45.266428A312.583035 312.583035 0 0 1 734.050179 672.879331a244.683393 244.683393 0 0 0-122.341696-34.255675 152.315412 152.315412 0 0 0-100.320191 34.255675 228.167264 228.167264 0 0 1-144.363202 45.266428 352.344086 352.344086 0 0 1-122.341697-23.856631v90.532855h1468.100358zM0 157.820789A3172.9319 3172.9319 0 0 1 978.733572 0a3172.9319 3172.9319 0 0 1 978.733573 157.820789v866.179211H0z m81.357228 784.821983h1794.752688V217.76822A3067.106332 3067.106332 0 0 0 978.733572 81.357228 3067.106332 3067.106332 0 0 0 81.357228 217.76822z" fill="#1296db" p-id="6910" data-spm-anchor-id="a313x.7781069.0.i13"></path></svg>
