<svg t="1607665705265" viewBox="0 0 1024 1024" version="1.1" xmlns="http://www.w3.org/2000/svg" p-id="5289" width="60" height="60"><path d="M512 887.466667c150.186667 0 273.066667-116.053333 273.066667-262.826667 0-95.573333-92.16-259.413333-273.066667-488.106667-180.906667 228.693333-273.066667 392.533333-273.066667 488.106667 0 146.773333 122.88 262.826667 273.066667 262.826667z" fill="#bce6f5" p-id="5290"></path><path d="M532.48 754.346667c-10.24 0-17.066667-6.826667-17.066667-17.066667s6.826667-17.066667 17.066667-17.066667c64.853333 0 119.466667-51.2 119.466667-112.64 0-23.893333-13.653333-61.44-40.96-105.813333-3.413333-6.826667-3.413333-17.066667 6.826666-23.893333 6.826667-3.413333 17.066667-3.413333 23.893334 6.826666 30.72 51.2 47.786667 92.16 47.786666 122.88-3.413333 78.506667-71.68 146.773333-157.013333 146.773334z" fill="#bce6f5" p-id="5291"></path></svg>
