<svg
        t="1607049413154"
        style="transform: rotateY(180deg)"
        viewBox="0 0 1133 1024"
        version="1.1"
        xmlns="http://www.w3.org/2000/svg"
        p-id="13305"
        id="mx_n_1607049413155"
        width="300"
        height="300"
>
    <path
            d="M857.067043 829.60621c0 20.234298-16.62103 36.132675-36.132675 36.132675H475.505999c-20.234298 0-36.132675-16.62103-36.132675-36.132675V312.186309c0-20.234298 16.62103-36.132675 36.132675-36.132675h345.428369c20.234298 0 36.132675 16.62103 36.132675 36.132675v517.419901z"
            fill="#dbdbdb"
            p-id="13306"
            data-spm-anchor-id="a313x.7781069.0.i74"
    ></path>
    <path
            d="M794.918843 451.658433c0 20.234298-16.62103 36.132675-36.132675 36.132675H537.654199c-20.234298 0-36.132675-16.62103-36.132675-36.132675V361.326747c0-20.234298 16.62103-36.132675 36.132675-36.132675H758.786168c20.234298 0 36.132675 16.62103 36.132675 36.132675v90.331686zM798.53211 542.712773c0 5.058574-4.335921 8.671842-9.394495 8.671842H506.580099c-5.058574 0-9.394495-4.335921-9.394496-8.671842 0-5.058574 4.335921-8.671842 9.394496-8.671841h282.557516c5.058574 0 9.394495 3.613267 9.394495 8.671841z"
            fill="#06fdef"
            p-id="13307"
            data-spm-anchor-id="a313x.7781069.0.i75"
    ></path>
    <path
            d="M482.00988 588.962597c0 17.343684-14.45307 31.796754-31.796754 31.796754-17.343684 0-31.796754-14.45307-31.796753-31.796754 0-17.343684 14.45307-31.796754 31.796753-31.796754 18.066337-0.722653 31.796754 13.730416 31.796754 31.796754z"
            fill="#06fdef"
            p-id="13308"
    ></path>
    <path
            d="M329.529993 868.629499c-23.847565 0-41.913903-12.285109-52.753705-27.460833-10.839802-15.175723-16.62103-32.519407-19.511644-47.69513-3.613267-23.847565-6.503881-51.308398-6.503882-83.105152 0-63.593507 10.839802-143.808045 44.804517-246.424841l26.015526 8.671842c-33.242061 101.171489-43.35921 178.495413-43.35921 238.475652 0 30.351447 2.890614 56.366972 6.503881 78.769231 1.445307 10.839802 6.503881 25.292872 14.45307 35.410021 7.949188 10.117149 16.62103 16.62103 30.351447 16.621031h5.058574c10.839802-1.445307 14.45307-4.335921 18.788991-11.562456 3.613267-7.226535 6.503881-19.511644 6.503882-36.132675 0-7.949188-0.722653-17.343684-1.445307-27.460833-2.890614-33.242061-13.007763-65.038814-13.730417-99.726182 0-22.402258 5.058574-46.249824 19.511645-69.374735 11.562456-18.788991 31.796754-23.124912 46.249823-23.124912 16.62103 0 29.628793 5.058574 30.351447 5.058575l-9.394496 26.015525s-2.16796-0.722653-5.781227-1.445307-9.394495-2.16796-15.175724-2.16796c-10.117149 0-18.066337 2.890614-23.124912 10.117149-11.562456 18.788991-15.175723 36.132675-15.898376 54.199012 0 28.90614 10.117149 60.702893 13.730416 97.558221 0.722653 10.839802 1.445307 20.956951 1.445307 30.351447 0 18.788991-2.16796 35.410021-9.394495 49.140438-7.226535 13.730416-22.402258 23.847565-39.745943 25.292872-2.16796 0-5.058574 0.722653-7.226535 0.722653l-0.722653-0.722653z"
            fill="#595959"
            p-id="13309"
    ></path>
    <path
            d="M882.359915 918.49259c0 5.058574-4.335921 9.394495-9.394495 9.394495H231.249118c-5.058574 0-9.394495-4.335921-9.394496-9.394495v-15.898377c0-5.058574 4.335921-9.394495 9.394496-9.394495h641.716302c5.058574 0 9.394495 4.335921 9.394495 9.394495v15.898377z"
            fill="#4197ae"
            p-id="13310"
            data-spm-anchor-id="a313x.7781069.0.i76"
    ></path>
    <path
            d="M320.858151 497.908257c-2.890614 10.117149-13.730416 16.62103-24.570219 13.730416-10.117149-2.890614-16.62103-13.730416-13.730416-24.570219l7.226535-25.292872c2.890614-10.117149 13.730416-16.62103 24.570219-13.730416 10.117149 2.890614 16.62103 13.730416 13.730416 24.570219l-7.226535 25.292872z"
            fill="#06fdef"
            p-id="13311"
    ></path>
    <path
            d="M278.221595 483.455187c3.613267 4.335921 8.671842 8.671842 14.45307 11.562456 5.058574 2.890614 9.394495 4.335921 15.898377 6.503881 17.343684 4.335921 36.855328 0 47.69513-15.175723 19.511644-26.738179-14.45307-51.308398 10.117149-77.323924 4.335921-5.058574 5.781228-26.015526 8.671842-31.0741 3.613267-4.335921 28.183486-24.570219 28.183486-24.570219 3.613267-2.890614 5.058574-12.285109-1.445307-20.234298-5.781228-7.226535-14.45307-10.839802-18.788991-7.949188L286.170783 407.57657l-0.722653 0.722654c-22.402258 20.956951-25.292872 53.476359-7.226535 75.155963z m57.812279-60.702893c5.058574-0.722653 10.117149 4.335921 10.839803 11.562455l5.781228 33.964715c1.445307 7.226535-1.445307 13.730416-6.503882 14.45307-5.058574 0.722653-10.117149-4.335921-10.839802-11.562456l-5.781228-33.964715c-1.445307-7.226535 1.445307-13.730416 6.503881-14.453069z"
            fill="#17BADE"
            p-id="13312"
    ></path></svg>
