<svg t="1607493408809" viewBox="0 0 1249 1024" version="1.1" xmlns="http://www.w3.org/2000/svg" p-id="4470" data-spm-anchor-id="a313x.7781069.0.i6" width="100" height="240" class="icon"><path d="M176.550759 229.017635a64.561695 64.561695 0 0 1-90.893124 5.137498 64.561695 64.561695 0 0 1-5.067505-90.991114 64.561695 64.561695 0 0 1 90.893124-5.067505 64.561695 64.561695 0 0 1 5.067505 90.921121zM609.108517 1004.205933L536.903568 70.833083H322.780478l-48.379275 930.223158 334.707314 3.149692z" fill="#00CA79" p-id="4471"></path> <path d="M598.273575 674.888093h39.196172v67.361422h-39.196172zM783.447491 674.888093h39.196173v67.361422h-39.196173zM972.443035 674.888093h39.196172v67.361422h-39.196172z" fill="#191919" p-id="4472"></path> <path d="M1104.758113 984.607847v-545.946685l-188.981544 156.042761V438.731155L730.602652 591.554231V438.731155L542.531018 593.92l-14.712563-200.516418 67.193438-75.312646h193.587095a68.089351 68.089351 0 0 0 67.361422 58.850253c1.287874 0 2.589747 0 3.877621-0.111989a68.075352 68.075352 0 0 0 11.198907-134.386876L865.115516 205.429938a68.271333 68.271333 0 0 0 41.281969-47.441367l43.395762-2.421763a68.229337 68.229337 0 0 0 63.973752 44.907614c1.273876 0 2.547751 0 3.835626-0.111989a68.103349 68.103349 0 1 0-69.993165-83.991797l-43.395762 2.421763a68.103349 68.103349 0 1 0-78.308353 89.815229l5.879426 36.620424a67.697389 67.697389 0 0 0-26.597403 18.198223 68.663295 68.663295 0 0 0-10.400984 15.398496H577.471606l-53.65676 60.152126L498.967273 0H248.041777l-11.940834 241.15445-29.649104-23.629693a83.991798 83.991798 0 1 0-22.803773 31.930882l50.07311 39.896104-34.282652 695.242105H0v39.196173h552.820014l21.249924 0.209979v-0.209979h675.33605v-39.196173H1104.758113z m-92.502966-881.073958h1.651839a28.907177 28.907177 0 0 1 28.809186 27.297335 28.893178 28.893178 0 1 1-30.461025-27.255339z m-191.291319 60.068134a28.893178 28.893178 0 0 1 17.652276-50.395078h1.651839a28.907177 28.907177 0 0 1 28.809186 27.297334 28.893178 28.893178 0 0 1-48.113301 23.13974z m13.550676 125.987697a28.921176 28.921176 0 1 1-7.307286 20.88596 28.837184 28.837184 0 0 1 7.37728-20.88596z m-672.578318-73.63281a44.795625 44.795625 0 1 1-3.48566-63.231825 44.795625 44.795625 0 0 1 3.48566 63.231825zM285.292139 39.210171h177.250691l24.973561 340.530745-32.196856 36.102474-181.464279-144.619877z m-46.461462 942.275981l32.644812-662.037348L459.855092 469.556145l31.650909-35.458537 40.358059 550.300259z m332.355543 3.121695l-25.197539-342.742529 145.361804-119.954286v462.696815z m159.416432 0V642.369269l145.977744-120.472236v462.696815H730.602652z m185.173917 0V645.518961l149.785372-123.621928v462.696815h-149.785372z" fill="#ffffff" p-id="4473" data-spm-anchor-id="a313x.7781069.0.i7" class="selected"></path></svg>
