<svg t="1616581666557" viewBox="0 0 1024 1024" version="1.1" xmlns="http://www.w3.org/2000/svg" p-id="2049" width="50" height="50"><path d="M192 874.667h640a32 32 0 0 1 3.072 63.85l-3.072 0.15H192a32 32 0 0 1-3.072-63.851l3.072-0.15h640-640z m320-608c123.712 0 224 100.288 224 224V800a32 32 0 0 1-32 32H320a32 32 0 0 1-32-32V490.667c0-123.712 100.288-224 224-224z m-28.096 155.349l-64 117.333A32 32 0 0 0 448 586.667h74.09l-38.186 70.016a32 32 0 0 0 56.192 30.634l64-117.333A32 32 0 0 0 576 522.667h-74.09l38.186-70.016a32 32 0 0 0-56.192-30.635z m-249.237-48.683a32 32 0 0 1 3.072 63.851l-3.072 0.15h-64a32 32 0 0 1-3.072-63.851l3.072-0.15h64z m618.666 0a32 32 0 0 1 3.072 63.851l-3.072 0.15h-64a32 32 0 0 1-3.072-63.851l3.072-0.15h64zM318.87 177.835l2.432 2.197 42.667 42.667a32 32 0 0 1-42.837 47.466l-2.432-2.197-42.667-42.667a32 32 0 0 1 42.837-47.466z m429.099 2.197a32 32 0 0 1 0 45.27l-42.667 42.666a32 32 0 0 1-45.269-45.27l42.667-42.666a32 32 0 0 1 45.269 0zM512 85.333a32 32 0 0 1 31.85 28.928l0.15 3.072v64a32 32 0 0 1-63.85 3.072l-0.15-3.072v-64a32 32 0 0 1 32-32z" fill="#DE0001" p-id="2050"></path></svg>
